<svg xmlns="http://www.w3.org/2000/svg" fill="none" viewBox="0 0 24 24" id="Mail--Streamline-Outlined-Material" height="24" width="24">
  <desc>
    Mail Streamline Icon: https://streamlinehq.com
  </desc>
  <path fill="#000000" d="M3.5 20c-0.4 0 -0.75 -0.15 -1.05 -0.45 -0.3 -0.3 -0.45 -0.65 -0.45 -1.05V5.5c0 -0.4 0.15 -0.75 0.45 -1.05C2.75 4.15 3.1 4 3.5 4h17c0.4 0 0.75 0.15 1.05 0.45 0.3 0.3 0.45 0.65 0.45 1.05v13c0 0.4 -0.15 0.75 -0.45 1.05 -0.3 0.3 -0.65 0.45 -1.05 0.45H3.5Zm8.5 -7.55L3.5 6.875V18.5h17V6.875L12 12.45Zm0 -1.5L20.4 5.5H3.625L12 10.95ZM3.5 6.875V5.5v13Z" stroke-width="0.5"></path>
</svg>